<?xml version="1.0" encoding="UTF-8"?>
<svg xmlns="http://www.w3.org/2000/svg" height="512" viewBox="0 0 512 512.0008" width="512" class="">
  <g>
    <path d="m502.007812 197.996094c0 103.828125-84.171874 188-188 188-103.832031 0-188.003906-84.171875-188.003906-188 0-103.832032 84.171875-188.003906 188.003906-188.003906 103.828126 0 188 84.171874 188 188.003906zm0 0" fill="#b0e7f8" data-original="#B0E7F8" class=""></path>
    <path d="m449.085938 198.917969c0 75.109375-60.890626 136-136 136-75.113282 0-136.003907-60.890625-136.003907-136 0-75.113281 60.890625-136.003907 136.003907-136.003907 75.109374 0 136 60.890626 136 136.003907zm0 0" fill="#fff" data-original="#FFF" class=""></path>
    <path d="m207.394531 357.234375-133.867187 133.867187c-14.53125 14.53125-38.09375 14.53125-52.625 0-14.535156-14.535156-14.535156-38.097656 0-52.628906l133.867187-133.867187zm0 0" fill="#00ccf2" data-original="#00CCF2" class=""></path>
    <path d="m154.769531 304.601562 52.625 52.628907-41.578125 41.578125-52.625-52.628906zm0 0" fill="#fff" data-original="#FFF" class=""></path>
    <path d="m231.84375 152.855469 126.703125-33.949219c19.15625-5.132812 36.6875 12.398438 31.554687 31.554688l-33.949218 126.703124c-3.347656 12.492188-17.132813 18.96875-28.886719 13.570313-48.1875-22.140625-86.851563-60.804687-108.992187-108.992187-5.398438-11.753907 1.078124-25.539063 13.570312-28.886719zm0 0" fill="#ffd89e" data-original="#FFD89E" class=""></path>
    <path d="m348.363281 253.292969h-1.996093c-9.960938 0-18.042969-8.046875-18.042969-17.96875s-8.078125-17.96875-18.039063-17.96875c-9.964844 0-18.042968-8.042969-18.042968-17.964844 0-9.925781-8.078126-17.96875-18.042969-17.96875-9.964844 0-18.042969-8.042969-18.042969-17.96875 0-6.238281-3.199219-11.734375-8.046875-14.953125l-16.265625 4.359375c-12.492188 3.347656-18.96875 17.128906-13.570312 28.882813 22.140624 48.1875 60.808593 86.851562 108.992187 108.992187 11.753906 5.402344 25.539063-1.074219 28.886719-13.566406l4.777344-17.820313c-2.941407-3.6875-7.472657-6.054687-12.566407-6.054687zm0 0" fill="#ffc15a" data-original="#FFC15A" class=""></path>
    <path d="m454.015625 57.984375c-32.167969-32.167969-74.765625-52.402344-119.945313-56.980469-44.542968-4.511718-89.6875 6.277344-127.117187 30.375-4.640625 2.992188-5.984375 9.179688-2.992187 13.820313 2.988281 4.644531 9.179687 5.988281 13.820312 2.996093 69.851562-44.96875 163.253906-34.90625 222.09375 23.933594 69.402344 69.402344 69.402344 182.328125 0 251.734375-69.402344 69.402344-182.332031 69.402344-251.734375 0-58.839844-58.839843-68.90625-152.242187-23.933594-222.09375 2.988281-4.644531 1.648438-10.832031-2.996093-13.820312-4.644532-2.988281-10.832032-1.648438-13.820313 2.996093-24.097656 37.429688-34.886719 82.574219-30.375 127.113282 2.96875 29.300781 12.53125 57.511718 27.65625 82.5l-31.484375 31.484375-2.351562-2.351563c-3.902344-3.90625-10.234376-3.90625-14.140626 0-3.90625 3.902344-3.90625 10.238282 0 14.140625l2.351563 2.351563-85.21875 85.214844c-18.40625 18.410156-18.40625 48.363281 0 66.773437 9.207031 9.203125 21.296875 13.804687 33.386719 13.804687s24.179687-4.601562 33.386718-13.804687l85.214844-85.21875 2.351563 2.351563c1.953125 1.953124 4.511719 2.929687 7.070312 2.929687 2.558594 0 5.121094-.976563 7.074219-2.929687 3.902344-3.90625 3.902344-10.238282 0-14.144532l-2.351562-2.347656 31.410156-31.414062c30.632812 18.632812 65.867187 28.597656 102.636718 28.597656 52.886719 0 102.609376-20.59375 140.007813-57.992188 77.199219-77.203125 77.199219-202.816406 0-280.019531zm-387.558594 426.046875c-10.609375 10.609375-27.875 10.609375-38.484375 0-10.613281-10.613281-10.613281-27.878906 0-38.488281l85.214844-85.21875 38.488281 38.488281zm99.359375-99.363281-38.484375-38.484375 28.765625-28.765625c5.46875 7.238281 11.4375 14.125 17.898438 20.585937 6.492187 6.496094 13.367187 12.46875 20.554687 17.929688zm0 0" data-original="#000000" class="active-path" style="fill:#000000"></path>
    <path d="m353.085938 452h-16.226563c-5.523437 0-10 4.476562-10 10s4.476563 10 10 10h16.226563c5.523437 0 10-4.476562 10-10s-4.476563-10-10-10zm0 0" data-original="#000000" class="active-path" style="fill:#000000"></path>
    <path d="m288.191406 452h-15.109375c-5.523437 0-10 4.476562-10 10s4.476563 10 10 10h15.109375c5.519532 0 10-4.476562 10-10s-4.476562-10-10-10zm0 0" data-original="#000000" class="active-path" style="fill:#000000"></path>
    <path d="m313.082031 411.996094c-5.519531 0-10 4.480468-10 10.003906v14.632812c0 5.523438 4.480469 10 10 10 5.523438 0 10.003907-4.476562 10.003907-10v-14.632812c0-5.523438-4.480469-10.003906-10.003907-10.003906zm0 0" data-original="#000000" class="active-path" style="fill:#000000"></path>
    <path d="m313.082031 480.214844c-5.519531 0-10 4.476562-10 10v11.785156c0 5.523438 4.480469 10 10 10 5.523438 0 10.003907-4.476562 10.003907-10v-11.785156c0-5.523438-4.480469-10-10.003907-10zm0 0" data-original="#000000" class="active-path" style="fill:#000000"></path>
    <path d="m73.777344 266.628906h16.226562c5.523438 0 10-4.476562 10-10 0-5.523437-4.476562-10-10-10h-16.226562c-5.523438 0-10 4.476563-10 10 0 5.523438 4.476562 10 10 10zm0 0" data-original="#000000" class="active-path" style="fill:#000000"></path>
    <path d="m10 266.628906h15.105469c5.523437 0 10-4.476562 10-10 0-5.523437-4.476563-10-10-10h-15.105469c-5.523438 0-10 4.476563-10 10 0 5.523438 4.476562 10 10 10zm0 0" data-original="#000000" class="active-path" style="fill:#000000"></path>
    <path d="m50 241.261719c5.523438 0 10-4.476563 10-10v-14.632813c0-5.523437-4.476562-10-10-10s-10 4.476563-10 10v14.632813c0 5.523437 4.476562 10 10 10zm0 0" data-original="#000000" class="active-path" style="fill:#000000"></path>
    <path d="m50 306.628906c5.523438 0 10-4.476562 10-10v-11.785156c0-5.523438-4.476562-10-10-10s-10 4.476562-10 10v11.785156c0 5.523438 4.476562 10 10 10zm0 0" data-original="#000000" class="active-path" style="fill:#000000"></path>
    <path d="m181.0625 75.054688c2.640625 0 5.210938-1.0625 7.070312-2.921876 1.871094-1.859374 2.929688-4.441406 2.929688-7.078124 0-2.632813-1.058594-5.210938-2.929688-7.070313-1.859374-1.863281-4.429687-2.929687-7.070312-2.929687-2.628906 0-5.210938 1.066406-7.070312 2.929687-1.859376 1.859375-2.929688 4.4375-2.929688 7.070313 0 2.636718 1.070312 5.207031 2.929688 7.078124 1.859374 1.859376 4.441406 2.921876 7.070312 2.921876zm0 0" data-original="#000000" class="active-path" style="fill:#000000"></path>
    <path d="m344.507812 180.964844c-2.632812 0-5.210937 1.070312-7.070312 2.929687s-2.929688 4.441407-2.929688 7.070313 1.070313 5.210937 2.929688 7.070312 4.4375 2.929688 7.070312 2.929688c2.628907 0 5.207032-1.070313 7.070313-2.929688 1.859375-1.859375 2.929687-4.441406 2.929687-7.070312s-1.070312-5.210938-2.929687-7.070313c-1.863281-1.859375-4.441406-2.929687-7.070313-2.929687zm0 0" data-original="#000000" class="active-path" style="fill:#000000"></path>
    <path d="m352.015625 146.984375c-2.628906 0-5.210937 1.070313-7.070313 2.929687-1.859374 1.859376-2.929687 4.4375-2.929687 7.070313 0 2.628906 1.070313 5.210937 2.929687 7.070313 1.859376 1.859374 4.441407 2.929687 7.070313 2.929687 2.632813 0 5.210937-1.070313 7.070313-2.929687 1.859374-1.859376 2.929687-4.441407 2.929687-7.070313 0-2.632813-1.070313-5.210937-2.929687-7.070313-1.859376-1.859374-4.4375-2.929687-7.070313-2.929687zm0 0" data-original="#000000" class="active-path" style="fill:#000000"></path>
    <path d="m315.886719 158.433594c-2.628907 0-5.210938 1.058594-7.070313 2.921875-1.859375 1.867187-2.929687 4.4375-2.929687 7.078125 0 2.628906 1.070312 5.210937 2.929687 7.070312s4.441406 2.929688 7.070313 2.929688c2.640625 0 5.210937-1.070313 7.070312-2.929688s2.929688-4.441406 2.929688-7.070312c0-2.640625-1.070313-5.210938-2.929688-7.078125-1.859375-1.859375-4.441406-2.921875-7.070312-2.921875zm0 0" data-original="#000000" class="active-path" style="fill:#000000"></path>
    <path d="m355.960938 109.246094-126.707032 33.953125c-8.804687 2.359375-16.082031 8.445312-19.957031 16.699219-3.875 8.25-3.914063 17.734374-.109375 26.019531 23.125 50.328125 63.578125 90.777343 113.902344 113.902343 4.105468 1.886719 8.5 2.828126 12.894531 2.828126 4.480469 0 8.960937-.980469 13.128906-2.9375 8.25-3.875 14.335938-11.148438 16.699219-19.957032l4.664062-17.417968c.003907-.003907.003907-.007813.003907-.011719l29.28125-109.277344c3.347656-12.488281-.113281-25.402344-9.257813-34.542969-9.140625-9.144531-22.054687-12.605468-34.542968-9.257812zm-9.46875 165.332031c-.84375 3.148437-2.933594 5.644531-5.882813 7.03125-2.949219 1.382813-6.207031 1.398437-9.167969.039063-45.984375-21.132813-82.949218-58.09375-104.078125-104.082032-1.363281-2.960937-1.347656-6.214844.039063-9.167968 1.382812-2.949219 3.882812-5.039063 7.027344-5.882813l10.742187-2.878906c.636719 1.15625.984375 2.460937.984375 3.816406 0 15.421875 12.582031 27.96875 28.042969 27.96875 4.433593 0 8.042969 3.574219 8.042969 7.964844 0 15.421875 12.578124 27.96875 28.042968 27.96875 4.433594 0 8.039063 3.574219 8.039063 7.96875 0 15.421875 12.582031 27.96875 28.042969 27.96875h1.996093c.382813 0 .757813.042969 1.125.109375zm33.949218-126.707031-25.773437 96.191406c-2.035157-.503906-4.148438-.769531-6.304688-.769531h-1.996093c-4.433594 0-8.039063-3.574219-8.039063-7.96875 0-15.421875-12.582031-27.96875-28.042969-27.96875-4.4375 0-8.042968-3.574219-8.042968-7.96875 0-15.417969-12.582032-27.964844-28.042969-27.964844-4.433594 0-8.042969-3.574219-8.042969-7.96875 0-3.121094-.527344-6.164063-1.507812-9.03125l96.488281-25.855469c5.503906-1.472656 11.195312.050782 15.226562 4.082032 4.027344 4.027343 5.554688 9.71875 4.078125 15.222656zm0 0" data-original="#000000" class="active-path" style="fill:#000000"></path>
    <path d="m313.082031 344.917969c-80.503906 0-146-65.496094-146-146 0-80.507813 65.496094-146.003907 146-146.003907 80.507813 0 146.003907 65.496094 146.003907 146.003907 0 80.503906-65.496094 146-146.003907 146zm0-272.003907c-69.476562 0-126 56.523438-126 126.003907 0 69.476562 56.523438 126 126 126 69.480469 0 126.003907-56.523438 126.003907-126 0-69.480469-56.523438-126.003907-126.003907-126.003907zm0 0" data-original="#000000" class="active-path" style="fill:#000000"></path>
  </g>
</svg>
